{"title":"Savages (2012) UNRATED WEBRIP AC3 XVID HS","uid":7782574,"size":1461246932,"categoryP":"video","categoryS":"movies","magnet":"?xt=urn:btih:99de0f7e1233ec066700aa729947fe6feeadaac1&amp;dn=Savages+%282012%29+UNRATED+WEBRIP+AC3+XVID+HS&amp;tr=udp%3A%2F%2Ftracker.openbittorrent.com%3A80&amp;tr=udp%3A%2F%2Fopen.demonii.com%3A1337&amp;tr=udp%3A%2F%2Ftracker.coppersurfer.tk%3A6969&amp;tr=udp%3A%2F%2Fexodus.desync.com%3A6969","seeders":24,"leechers":0,"uploader":"MANTESH","files":3,"time":1351809045,"description":" &lt;a href=&quot;http://s7.postimage.org/5xg3ka26z/1nra8bi7qbm3.jpg&quot; rel=&quot;nofollow&quot; target=&quot;_NEW&quot;&gt;http://s7.postimage.org/5xg3ka26z/1nra8bi7qbm3.jpg&lt;/a&gt;\n\nSavages (2012) UNRATED WEBRIP AC3 XVID HS\n &lt;a href=&quot;\nhttp://www.imdb.com/title/tt1615065/&quot; rel=&quot;nofollow&quot; target=&quot;_NEW&quot;&gt;\nhttp://www.imdb.com/title/tt1615065/&lt;/a&gt;\n\n\n\nStoryline\n\nEntrepreneurs Ben, a peaceful and charitable marijuana producer, and friend Chon, a former Navy SEAL, run a lucrative, homegrown industry - raising some of the best weed ever developed. They also share a one-of-a-kind love with Ophelia. Life is idyllic in their Southern California town... until the Mexican Baja Cartel decides to move in and demands that the trio partners with them. When the merciless head of the BC, Elena and her enforcer, Lado, underestimate the unbreakable bond of the three friends, Ben and Chon - with the reluctant assistance of a dirty DEA agent - wage a seemingly unwinnable war against the cartel. And so begins a series of increasingly vicious ploys and maneuvers in a high stakes, savage battle of wills.\n\n\nFormat/Info : Audio Video Interleave\n File size : 1.36 GiB\n Duration : 2h 11mn\n Overall bit rate : 1 486 Kbps\n Writing application : VirtualDubMod 1.5.10.2 (build 2542/release)\n Writing library : VirtualDubMod build 2542/release\n\n Video\n ID : 0\n Format : MPEG-4 Visual\n Format profile : Advanced Simple@L5\n Format settings, BVOP : 4\n Format settings, QPel : No\n Format settings, GMC : No warppoints\n Format settings, Matrix : Default (H.263)\n Muxing mode : Packed bitstream\n Codec ID : XVID\n Codec ID/Hint : XviD\n Duration : 2h 11mn\n Bit rate : 1 093 Kbps\n Width : 720 pixels\n Height : 304 pixels\n Display aspect ratio : 2.35:1\n Frame rate : 23.976 fps\n Color space : YUV\n Chroma subsampling : 4:2:0\n Bit depth : 8 bits\n Scan type : Progressive\n Compression mode : Lossy\n Bits/(Pixel*Frame) : 0.208\n Stream size : 1.00 GiB (74%)\n Writing library : XviD 64\n\n Audio\n ID : 1\n Format : AC-3\n Format/Info : Audio Coding 3\n Mode extension : CM (complete main)\n Format settings, Endianness : Big\n Codec ID : 2000\n Duration : 2h 11mn\n Bit rate mode : Constant\n Bit rate : 384 Kbps\n Channel(s) : 6 channels\n Channel positions : Front: L C R, Side: L R, LFE\n Sampling rate : 48.0 KHz\n Bit depth : 16 bits\n Compression mode : Lossy\n Stream size : 360 MiB (26%)\n Alignment : Split accross interleaves\n Interleave, duration : 42 ms (1.00 video frame)\n Interleave, preload duration : 500 ms\n\n &lt;a href=&quot;\nhttp://www.shotpix.com/images/76534309247345498963.png&quot; rel=&quot;nofollow&quot; target=&quot;_NEW&quot;&gt;\nhttp://www.shotpix.com/images/76534309247345498963.png&lt;/a&gt; &lt;a href=&quot;\nhttp://www.shotpix.com/images/34292859184778153128.png&quot; rel=&quot;nofollow&quot; target=&quot;_NEW&quot;&gt;\nhttp://www.shotpix.com/images/34292859184778153128.png&lt;/a&gt;\n\n","torrent":{"xt":"urn:btih:99de0f7e1233ec066700aa729947fe6feeadaac1","amp;dn":"Savages+%282012%29+UNRATED+WEBRIP+AC3+XVID+HS","amp;tr":["udp%3A%2F%2Ftracker.openbittorrent.com%3A80","udp%3A%2F%2Fopen.demonii.com%3A1337","udp%3A%2F%2Ftracker.coppersurfer.tk%3A6969","udp%3A%2F%2Fexodus.desync.com%3A6969"],"infoHash":"99de0f7e1233ec066700aa729947fe6feeadaac1","infoHashBuffer":{"type":"Buffer","data":[153,222,15,126,18,51,236,6,103,0,170,114,153,71,254,111,238,173,170,193]},"announce":[],"urlList":[]}}